<?xml version="1.0" encoding="UTF-8" standalone="no"?>
<!-- Created with Inkscape (http://www.inkscape.org/) -->

<svg
   width="67.73333mm"
   height="67.73333mm"
   viewBox="0 0 67.73333 67.73333"
   version="1.1"
   id="svg1"
   inkscape:version="1.4 (e7c3feb100, 2024-10-09)"
   sodipodi:docname="icon.svg"
   xmlns:inkscape="http://www.inkscape.org/namespaces/inkscape"
   xmlns:sodipodi="http://sodipodi.sourceforge.net/DTD/sodipodi-0.dtd"
   xmlns:xlink="http://www.w3.org/1999/xlink"
   xmlns="http://www.w3.org/2000/svg"
   xmlns:svg="http://www.w3.org/2000/svg">
  <sodipodi:namedview
     id="namedview1"
     pagecolor="#ffffff"
     bordercolor="#000000"
     borderopacity="1"
     inkscape:showpageshadow="true"
     inkscape:pageopacity="0"
     inkscape:pagecheckerboard="0"
     inkscape:deskcolor="#4f4f4f"
     inkscape:document-units="px"
     inkscape:zoom="2.0409673"
     inkscape:cx="25.478115"
     inkscape:cy="113.18163"
     inkscape:window-width="1920"
     inkscape:window-height="1011"
     inkscape:window-x="0"
     inkscape:window-y="32"
     inkscape:window-maximized="1"
     inkscape:current-layer="layer1" />
  <defs
     id="defs1">
    <color-profile
       name="Coated-FOGRA27-ISO-12647-2:2004"
       xlink:href="file:///app/share/color/icc/CoatedFOGRA27.icc"
       id="color-profile3" />
    <color-profile
       name="sRGB-IEC61966-2.1"
       xlink:href="file:///app/share/color/icc/sRGB.icm"
       id="color-profile4" />
  </defs>
  <g
     inkscape:label="Camada 1"
     inkscape:groupmode="layer"
     id="layer1">
    <g
       id="g2"
       transform="matrix(0.9595951,0,0,0.9595951,91.184009,1.3683539)">
      <circle
         style="font-variation-settings:normal;vector-effect:none;fill:#ffffff;fill-opacity:1;fill-rule:evenodd;stroke-width:2.78831;stroke-linecap:round;stroke-linejoin:round;stroke-miterlimit:4;stroke-dasharray:none;stroke-dashoffset:0;stroke-opacity:1;-inkscape-stroke:none;paint-order:markers stroke fill;stop-color:#000000"
         id="circle7"
         cx="-59.730759"
         cy="33.866692"
         r="35.292664" />
      <path
         id="path2"
         style="font-variation-settings:normal;vector-effect:none;fill:#aa0000;fill-opacity:1;fill-rule:evenodd;stroke-width:2.67565;stroke-linecap:round;stroke-linejoin:round;stroke-miterlimit:4;stroke-dasharray:none;stroke-dashoffset:0;stroke-opacity:1;-inkscape-stroke:none;paint-order:markers stroke fill;stop-color:#000000"
         d="m -59.73069,5e-6 a 33.866665,33.866665 0 0 0 -8.79481,1.20975 c 8.80342,2.15795 14.11801,7.43243 17.98546,13.69477 0.442,0.0595 0.95024,0.0667 1.3255,0.41754 -1.41318,-4.65961 -0.8736,-8.00962 2.86236,-11.39051 -2.27333,5.75825 0.80727,14.8265 4.9444,14.36966 0.0782,1.94556 -1.48592,1.73918 -1.38544,2.69648 0.056,0.5471 0.16211,1.13195 1.3286,1.78438 0.51203,0.28611 2.08829,-0.10663 2.59777,-0.87281 0.5019,0.7119 1.29042,1.79291 0.83768,2.86959 1.62293,0.59375 2.99498,1.30471 3.43131,-0.64337 0.60932,0.4335 0.89203,1.29391 0.42427,1.99316 1.74546,-0.10996 2.23976,-0.40359 2.45928,-1.81281 0.654741,0.49972 1.113598,0.69608 1.24075,2.63602 1.677888,0.59748 2.23283,2.30985 0.911572,3.13159 1.674199,1.04619 0.07988,4.4534 -1.265039,5.12423 0.221569,-0.89593 0.105295,-1.39131 -0.141593,-1.87689 -0.171659,0.24423 -0.79315,0.61172 -1.22266,0.71779 0.10055,-0.8597 0.0979,-1.32473 -0.14832,-1.65778 -0.69865,0.39258 -1.61063,1.22232 -2.44532,0.97203 0.40022,-0.2421 0.87747,-0.56794 1.08468,-1.04593 -0.62567,-0.0629 -1.24882,-0.4141 -1.61127,-0.64389 -0.47686,0.99491 -1.50205,1.86831 -2.92643,1.95441 0.44651,-0.75069 1.14949,-1.66944 1.26504,-2.54455 l -0.74208,-0.38809 c -0.39191,0.72136 -1.38651,1.32098 -2.13113,1.32498 l 1.09605,-1.64331 -0.37155,-0.1943 c -0.5235,0.13682 -1.24098,0.27863 -1.66088,0.24443 0.50948,-0.76622 0.38487,-1.22496 0.21187,-1.44177 l -1.00717,1.25108 c -0.26416,-0.65322 -0.15519,-1.15402 0.078,-1.73529 l -0.37155,-0.19069 c -0.39344,0.41982 -0.79461,0.42857 -1.97869,0.54416 l 0.97513,-1.28985 c -0.10622,-0.0739 -0.35639,-0.29848 -0.74207,-0.52348 -0.88427,0.4253 -1.1268,0.5342 -2.04587,0.35708 0.67844,-0.55684 1.19239,-0.91855 0.67127,-1.20509 -0.63011,-0.34653 -1.30698,-0.66058 -1.91564,-0.7953 -1.91118,-0.34488 -2.10065,1.14122 -2.03915,1.97921 0.019,0.26878 0.0474,0.5107 0.0884,0.73845 5.35745,-0.10273 3.84974,2.95224 6.02237,5.14594 1.12183,0.78755 2.39199,1.82464 3.82716,3.31815 1.0925,1.13759 2.00306,0.16292 2.67529,-0.0703 -0.50518,0.76536 -0.11056,1.67612 1.60817,0.97151 -1.05604,1.45051 -3.18973,0.6764 -3.14193,1.66502 0.24798,0.12858 0.95609,0.0605 1.01079,0.40927 -1.95268,1.07168 -1.99847,2.3988 -2.06757,4.23024 -2.03076,-1.20625 -3.12737,-3.09527 -4.06383,-5.94383 -0.48007,0.69501 -1.705,0.8485 -2.67529,0.66043 2.17534,-7.40715 -10.91652,-8.59829 -15.92823,-8.30492 9.18562,-5.48116 5.17161,-9.96046 4.08554,-10.70116 0.82222,1.99938 0.63688,4.02666 -0.10646,5.03225 -5.72206,-3.45083 -15.62335,0.7135 -15.51429,10.07949 0.16503,14.16002 23.43319,16.06386 23.89725,28.05307 -0.0127,0.013 -0.0265,0.0243 -0.0393,0.0372 -3.2642,1.1828 -6.786,1.83141 -10.46241,1.83141 -5.02037,0 -9.75495,-1.20464 -13.93455,-3.33726 3.09013,-2.51342 4.13375,-6.89088 2.6417,-11.9538 0.10006,4.77113 -1.27987,7.35117 -3.9827,8.77156 -10.01631,-12.41414 -12.67584,-37.00938 8.94829,-44.02729 2.06574,0.71085 3.38435,1.31752 4.83071,2.20555 -2.56841,-3.52073 -7.71035,-7.20501 -15.75098,-9.7503 6.95246,0.56484 13.3658,2.12674 19.66702,8.27649 -3.65632,-5.71881 -8.257,-9.81201 -15.32619,-12.08711 a 33.866665,33.866665 0 0 0 -20.95997,31.23995 33.866665,33.866665 0 0 0 2.67426,13.03331 c 1.18344,-3.57688 3.82763,-3.22767 5.62911,-6.62802 0.23706,3.16232 0.90742,6.3038 1.90841,9.27334 0.0274,0.0848 0.0565,0.16863 0.0848,0.25063 0.10679,0.31094 0.21444,0.61675 0.32867,0.92242 -3.53821,0.80128 -4.7327,-0.82722 -6.69055,-1.18132 a 33.866665,33.866665 0 0 0 3.94394,5.98206 c 1.22815,-1.36355 2.99276,-1.78242 3.35122,-3.25975 0.0214,0.05 0.0515,0.09 0.0739,0.1447 1.01738,2.38235 2.24388,4.61475 3.64008,6.58771 -1.29211,0.72607 -2.12924,0.84057 -2.88199,0.74879 a 33.866665,33.866665 0 0 0 21.80487,7.9928 33.866665,33.866665 0 0 0 33.866668,-33.86667 A 33.866665,33.866665 0 0 0 -59.73065,-2.5e-5 Z m -11.81943,12.12329 v 5.2e-4 c 1.80279,0.0735 2.35003,1.15747 3.92999,1.35031 -0.67121,0.22186 -1.30842,0.45712 -1.91926,0.70331 -0.0203,0.007 -0.0395,0.0204 -0.06,0.0274 -0.62447,0.25347 -1.22305,0.51749 -1.788,0.79168 -1.32362,-1.08864 -0.24448,-1.92639 -1.70326,-2.72851 0.60599,-0.12447 1.10983,-0.1653 1.54048,-0.1447 z m -5.30097,2.48771 c 1.52654,0.0854 2.58044,0.98213 4.31136,0.97513 -1.65355,0.90375 -3.04129,1.88519 -4.21576,2.88406 -1.56537,-0.96969 -0.90143,-2.6128 -2.62568,-3.283 1.02177,-0.47873 1.82537,-0.61699 2.53008,-0.57619 z m -4.95835,4.40335 v 5.1e-4 c 1.38187,0.0383 2.74232,0.43547 4.18114,0.23306 -1.39515,1.29913 -2.60773,2.70914 -3.62976,4.20905 -2.54389,-0.78978 -1.55054,-2.80303 -3.97908,-3.31866 1.19002,-0.94605 2.31537,-1.15816 3.4277,-1.12396 z m 31.40376,0.73535 c 1.24563,0.96605 0.55373,2.95838 2.27583,3.60805 0.88985,0.33548 1.96465,0.39885 2.90474,-0.42375 -3.01074,-0.37176 -2.10961,-2.47813 -5.18057,-3.1843 z m -31.71486,5.07824 c -1.03781,1.77137 -1.82865,3.64783 -2.36419,5.59811 -2.39741,-0.52364 -1.83257,-2.68106 -4.63641,-3.19463 1.96129,-2.28958 4.19898,-1.40929 7.0006,-2.40348 z m 34.84594,5.10667 c -0.18875,0.013 -0.39788,0.0575 -0.64337,0.13798 0.69252,0.70339 1.72216,1.15976 3.10988,1.94355 -1.04845,-0.73086 -1.14746,-2.16763 -2.46651,-2.08153 z m -37.65869,2.56212 c -0.0497,0.27745 -0.11534,0.55794 -0.15554,0.83767 -0.22393,1.57987 -0.31272,3.18336 -0.29352,4.79247 -2.99875,0.36097 -3.01429,-2.55687 -6.25182,-2.50217 2.43429,-2.89231 4.77976,-1.90821 6.70088,-3.12797 z m 36.85977,9.89552 c 1.5284,0.031 3.18013,0.29978 5.03277,0.95084 -7.10803,0.0371 -9.60876,2.627 -11.36933,5.24775 2.62836,-2.24222 4.70394,-3.05358 7.47809,-3.63286 -2.61223,6.63145 3.66984,13.02815 9.47849,9.38651 -2.29664,0.54148 -3.79315,0.25252 -4.9444,-0.58705 3.40459,0.26547 5.68635,-0.43145 7.38818,-1.74407 -2.83086,3.85347 -6.54036,7.01738 -10.83655,9.20047 -0.73581,-11.6738 -16.38842,-12.46408 -21.32169,-17.76481 8.17694,3.12215 12.47154,-1.19152 19.09444,-1.05678 z" />
    </g>
  </g>
</svg>
